<svg xmlns="http://www.w3.org/2000/svg" version="1.1" xmlns:xlink="http://www.w3.org/1999/xlink" xmlns:svgjs="http://svgjs.dev/svgjs" width="2000" height="449" viewBox="0 0 2000 449"><g transform="matrix(1,0,0,1,-1.2121041757022795,0.34627278258045635)"><svg viewBox="0 0 396 89" data-background-color="#f9f9f9" preserveAspectRatio="xMidYMid meet" height="449" width="2000" xmlns="http://www.w3.org/2000/svg" xmlns:xlink="http://www.w3.org/1999/xlink"><defs></defs><g id="tight-bounds" transform="matrix(1,0,0,1,0.23999670208394264,-0.06863758942017739)"><svg viewBox="0 0 395.52 89.13727517884035" height="89.13727517884035" width="395.52"><g><svg viewBox="0 0 395.52 89.13727517884035" height="89.13727517884035" width="395.52"><g><svg viewBox="0 0 395.52 89.13727517884035" height="89.13727517884035" width="395.52"><g><svg viewBox="0 0 395.52 89.13727517884035" height="89.13727517884035" width="395.52"><g><svg viewBox="0 0 395.52 89.13727517884035" height="89.13727517884035" width="395.52"><g transform="matrix(1,0,0,1,0,0)"><svg width="395.52" viewBox="3.950000047683716 -37.663333892822266 250.47999572753906 56.116458892822266" height="89.13727517884035" data-palette-color="#030303"><g class="undefined-text-0" data-fill-palette-color="primary" id="text-0"><path d="M4-15.35Q3.95-15.7 3.95-16.5L3.95-16.5Q3.95-18.45 4.35-20.3 4.75-22.15 5.5-24.35L5.5-24.35Q6.25-26.4 8.35-28.45 10.45-30.5 13.05-31.83 15.65-33.15 17.75-33.15L17.75-33.15Q19.9-33.15 21.95-31.58 24-30 24.55-28L24.55-28Q24.65-27.4 24.65-27.2L24.65-27.2Q24.65-26.45 24.23-26.08 23.8-25.7 23.1-25.7L23.1-25.7Q22.55-25.7 22.25-25.75L22.25-25.75Q22.1-25.75 21.8-25.95L21.8-25.95Q20.35-26.75 19-26.75L19-26.75Q16.45-26.75 13.95-24.1L13.95-24.1Q9.7-19.65 9.7-13.5L9.7-13.5Q9.7-11.3 10.15-9.25L10.15-9.25Q10.65-6.95 11.93-5.88 13.2-4.8 15.35-4.8L15.35-4.8Q16.1-4.8 17-4.95L17-4.95Q20.15-5.35 22.8-6.88 25.45-8.4 28.65-10.95L28.65-10.95Q29.4-11.55 31.3-13.45L31.3-13.45 32.3-14.5Q32.95-15.15 33.43-15.43 33.9-15.7 34.3-15.7L34.3-15.7Q34.95-15.7 35.9-15.05L35.9-15.05Q36.95-14.3 36.95-13.15L36.95-13.15Q36.95-12.35 36.4-11.65L36.4-11.65Q36.2-11.3 35.3-10.03 34.4-8.75 33.55-7.75 32.7-6.75 31.85-6.05L31.85-6.05Q27.25-2 22.25-0.6L22.25-0.6Q20.05 0 17.85 0L17.85 0Q13.8 0 10.68-2.05 7.55-4.1 5.8-7.43 4.05-10.75 4-14.35L4-14.35 4-15.35ZM46.1-26.7Q46.15-21.85 46.37-18.73 46.6-15.6 47.45-12.1L47.45-12.1Q49.55-12.85 51.3-12.85L51.3-12.85Q54.25-12.85 56.4-11.1 58.55-9.35 59.3-6.75L59.3-6.75Q59.9-4.85 59.9-1.65L59.9-1.65 59.85 2.25Q59.85 2.6 59.45 3.05 59.05 3.5 58.65 3.6L58.65 3.6Q58.5 3.65 58.2 3.65L58.2 3.65Q57.05 3.65 55.8 2.53 54.55 1.4 54.5 0.3L54.5 0.3 54.4-2.3Q54.4-3.2 54.3-4.9L54.3-4.9Q54.2-6.65 53.9-7.4L53.9-7.4Q53.6-8.25 53.15-8.7 52.7-9.15 52.15-9.15L52.15-9.15Q51.75-9.15 51.27-8.8 50.8-8.45 50.45-7.85L50.45-7.85Q49.4-6.2 47.7-1.35L47.7-1.35Q47.15 0.4 45.75 0.4L45.75 0.4Q45.6 0.4 45.1 0.3L45.1 0.3Q44.8 0.2 43.95-0.03 43.1-0.25 42.62-0.75 42.15-1.25 42.15-2.2L42.15-2.2Q42.15-11.65 41-17.85L41-17.85Q40.45-20.95 40.45-25L40.45-25 40.45-28.35 40.45-30.1Q40.45-30.8 41.2-31.3 41.95-31.8 42.9-31.8L42.9-31.8Q43.7-31.8 44.25-31.45L44.25-31.45Q45.25-30.85 45.67-29.95 46.1-29.05 46.1-27.7L46.1-27.7 46.1-26.7ZM69.55-23.3Q69.45-23 68.82-22.65 68.2-22.3 67.8-22L67.8-22 66.4-22.75Q64.35-23.85 63.6-24.5L63.6-24.5Q63.2-24.8 63.2-25.25L63.2-25.25Q63.2-25.55 63.42-25.78 63.65-26 64.1-26L64.1-26Q66.05-26 68.85-25L68.85-25Q69.15-24.95 69.4-24.33 69.65-23.7 69.55-23.3L69.55-23.3ZM65.05-14Q65.2-14.65 65.25-14.95 65.3-15.25 65.3-15.6L65.3-15.6Q65.3-16.3 65.72-16.7 66.15-17.1 67.35-17.1L67.35-17.1Q68.75-17.1 69.82-16.23 70.9-15.35 71.15-13.95L71.15-13.95Q71.3-13.25 71.35-12.4 71.4-11.55 71.4-11.3L71.4-11.3 72.1-2.75Q72.25-1.4 71.72-0.68 71.2 0.05 69.75 0.05L69.75 0.05Q68.5 0.05 67.62-0.65 66.75-1.35 66.55-2.45L66.55-2.45 65.25-13.05 65.05-14ZM85.44-7.8Q84.94-7.5 83.99-7.5L83.99-7.5Q83.64-7.5 83.14-7.55 82.64-7.6 82.29-7.55L82.29-7.55Q82.69-5.9 84.19-4.88 85.69-3.85 87.54-3.85L87.54-3.85Q89.14-3.85 90.39-4.55L90.39-4.55Q92.24-5.5 93.59-6.8L93.59-6.8Q94.54-7.75 95.39-7.75L95.39-7.75Q95.94-7.75 96.34-7.2L96.34-7.2Q96.74-6.55 96.74-5.6L96.74-5.6Q96.74-4.6 96.34-4.05L96.34-4.05Q95.04-2.05 92.97-1.3 90.89-0.55 88.14-0.55L88.14-0.55Q85.29-0.55 82.64-1.8 79.99-3.05 78.12-5.23 76.24-7.4 75.64-10.05L75.64-10.05Q75.24-11.6 75.24-13.1L75.24-13.1Q75.24-15.45 76.57-16.9 77.89-18.35 80.84-19.65L80.84-19.65Q83.54-20.8 85.84-20.8L85.84-20.8Q87.49-20.8 89.04-20.3L89.04-20.3Q93.84-18.8 93.84-16.2L93.84-16.2Q93.84-14.55 91.89-12.2L91.89-12.2Q90.94-11.1 89.64-10.25 88.34-9.4 87.12-8.72 85.89-8.05 85.44-7.8L85.44-7.8ZM87.54-17.05Q87.49-17.3 87.17-17.48 86.84-17.65 86.79-17.7L86.79-17.7Q85.44-17.8 84.04-16.93 82.64-16.05 81.72-14.7 80.79-13.35 80.79-12.1L80.79-12.1 80.84-11.7Q80.89-11.5 81.37-11.2 81.84-10.9 81.94-11L81.94-11Q85.49-13.65 87.29-15.25L87.29-15.25Q87.59-15.55 87.59-16.35L87.59-16.35Q87.59-16.85 87.54-17.05L87.54-17.05ZM124.79-13.05Q124.69-14.95 123.19-15.85L123.19-15.85Q121.99-15.55 121.24-15.1 120.49-14.65 120.14-14.23 119.79-13.8 118.89-12.6L118.89-12.6Q118.59-12.2 118.27-11.5 117.94-10.8 117.89-10.65L117.89-10.65Q117.74-10.3 117.74-9.9L117.74-9.9Q117.74-9.6 117.87-8.97 117.99-8.35 117.94-8L117.94-8Q117.89-7.25 117.99-5.65L117.99-5.65 118.04-4.1Q118.04-3.4 117.99-3.05L117.99-3.05Q117.89-2.25 117.49-1.65 117.09-1.05 116.39-1.05L116.39-1.05Q116.14-1.05 115.74-1.2L115.74-1.2Q115.39-1.3 114.59-1.55 113.79-1.8 113.34-2.33 112.89-2.85 112.89-3.85L112.89-3.85Q112.89-6.45 112.39-11.65L112.39-11.65Q112.29-12.2 112.19-13.5L112.19-13.5Q112.14-14.05 111.69-14.35 111.24-14.65 110.59-14.65L110.59-14.65Q109.54-14.65 108.99-14.1L108.99-14.1Q106.69-12.8 105.64-11.15 104.59-9.5 104.59-6.9L104.59-6.9 104.64-5.2Q104.64-3.55 103.79-2.15L103.79-2.15Q103.54-1.7 102.77-1.38 101.99-1.05 101.44-1.15L101.44-1.15Q100.94-1.2 100.42-1.83 99.89-2.45 99.89-2.95L99.89-2.95Q99.74-7.15 99.74-11.3L99.74-11.3Q99.74-15.05 99.84-16.9L99.84-16.9Q99.89-17.85 100.49-18.4 101.09-18.95 101.94-18.95L101.94-18.95Q103.04-18.95 103.89-18.15L103.89-18.15Q104.34-17.3 104.64-16.93 104.94-16.55 105.29-16.55L105.29-16.55Q105.59-16.55 105.99-16.88 106.39-17.2 107.09-17.95L107.09-17.95Q108.74-19.75 110.54-19.75L110.54-19.75Q112.49-19.75 115.24-17.8L115.24-17.8Q115.44-17.65 115.79-17.38 116.14-17.1 116.39-17.1L116.39-17.1Q116.74-17.1 117.49-17.9L117.49-17.9Q120.29-20.5 124.59-20.75L124.59-20.75Q125.94-20.8 127.32-19.73 128.69-18.65 129.04-17.15L129.04-17.15Q129.64-14.6 129.89-11.15L129.89-11.15Q130.19-5.95 130.14-3.35L130.14-3.35Q130.09-2.15 129.49-1.48 128.89-0.8 127.94-0.8L127.94-0.8Q127.19-0.8 126.34-1.25L126.34-1.25Q125.99-1.4 125.69-1.8 125.39-2.2 125.39-2.5L125.39-2.5 125.09-7.8Q125.04-8.65 124.99-9.98 124.94-11.3 124.79-13.05L124.79-13.05ZM151.44-12.6Q151.29-9 150.94-7.15 150.59-5.3 149.56-3.63 148.54-1.95 146.24 0.25L146.24 0.25 147.99 1.2Q149.59 2.1 150.34 2.45L150.34 2.45Q152.59 3.5 153.74 5.13 154.89 6.75 154.89 8.7L154.89 8.7Q154.89 11.1 153.29 13.45L153.29 13.45Q151.59 15.95 149.04 17.18 146.49 18.4 143.59 18.45L143.59 18.45Q141.44 18.5 139.19 17.75L139.19 17.75Q138.14 17.4 137.09 16.23 136.04 15.05 135.41 13.6 134.79 12.15 134.84 11.05L134.84 11.05Q134.89 10.8 135.04 10.53 135.19 10.25 135.39 10.2L135.39 10.2Q135.44 10.15 135.59 10.15L135.59 10.15Q135.74 10.15 136.01 10.28 136.29 10.4 136.39 10.45L136.39 10.45Q136.64 10.55 136.74 10.9L136.74 10.9Q137.44 12.45 138.29 13.35 139.14 14.25 140.54 14.15L140.54 14.15Q145.69 13.8 147.59 11.3L147.59 11.3Q148.24 10.5 148.66 9.47 149.09 8.45 149.09 7.55L149.09 7.55Q149.09 6.25 148.46 5.65 147.84 5.05 146.54 4.8L146.54 4.8Q145.14 4.55 143.86 4.1 142.59 3.65 140.79 2.75L140.79 2.75Q139.89 2.3 139.54 1.95 139.19 1.6 139.19 1.1L139.19 1.1Q139.19 0.6 139.79-1.45L139.79-1.45Q139.89-1.75 138.86-2.45 137.84-3.15 137.09-3.6L137.09-3.6Q134.39-5.2 134.39-8.8L134.39-8.8Q134.39-9.8 134.54-10.7L134.54-10.7Q135.44-16.2 139.89-18.5L139.89-18.5Q140.94-19.05 142.09-19.05L142.09-19.05Q142.94-19.05 143.84-18.8 144.74-18.55 144.89-18.5L144.89-18.5 145.94-18.2Q146.69-18 147.39-18L147.39-18Q148.34-18 149.11-18.35 149.89-18.7 150.69-19.45L150.69-19.45Q151.84-20.4 153.14-20.4L153.14-20.4Q154.09-20.4 154.84-19.88 155.59-19.35 155.94-18.35L155.94-18.35Q156.04-17.95 156.04-17.7L156.04-17.7Q156.04-17.25 155.89-17L155.89-17Q155.74-16.8 155.04-15.7L155.04-15.7Q154.69-15.05 154.39-14.6 154.09-14.15 153.44-13.6L153.44-13.6Q152.99-13.35 152.49-13.23 151.99-13.1 151.71-13 151.44-12.9 151.44-12.6L151.44-12.6ZM140.94-13.35Q139.39-11.55 139.39-9.7L139.39-9.7Q139.39-8.4 140.21-7.23 141.04-6.05 142.74-5.2L142.74-5.2Q144.64-5.95 145.69-7.8 146.74-9.65 146.74-11.85L146.74-11.85Q146.74-13.2 146.34-14.3 145.94-15.4 144.74-16L144.74-16Q142.44-15.1 140.94-13.35L140.94-13.35ZM174.39-2.55Q173.94-2.75 173.49-2.75L173.49-2.75Q173.04-2.75 172.71-2.53 172.39-2.3 171.99-1.85L171.99-1.85Q171.39-1.25 170.74-0.85L170.74-0.85Q170.14-0.5 168.54-0.2L168.54-0.2Q167.84-0.1 167.39-0.1L167.39-0.1Q165.29-0.1 163.01-1.03 160.74-1.95 159.79-3.25L159.79-3.25Q158.79-4.65 158.84-6.25L158.84-6.25Q158.89-8.65 160.84-11.05L160.84-11.05Q162.74-13.35 164.31-14.3 165.89-15.25 168.64-15.5L168.64-15.5Q169.24-15.5 170.36-15.7 171.49-15.9 171.49-16.25L171.49-16.25Q171.49-16.95 170.86-17.53 170.24-18.1 168.34-18.1L168.34-18.1Q167.64-18.1 166.24-18L166.24-18Q164.84-17.9 164.29-17.9L164.29-17.9Q162.59-17.9 161.84-18.45L161.84-18.45Q161.64-18.55 161.64-19.4L161.64-19.4Q161.64-20.9 162.69-21.3L162.69-21.3Q164.84-22.1 167.14-22.15L167.14-22.15Q170.04-22.15 172.51-20.88 174.99-19.6 176.14-17.7L176.14-17.7Q177.29-15.8 177.64-12.45L177.64-12.45Q178.04-8.7 178.04-2.9L178.04-2.9Q178.04-1.3 177.59-1.05L177.59-1.05Q177.19-0.8 176.84-0.8L176.84-0.8Q176.39-0.8 176.01-1.07 175.64-1.35 175.19-1.85L175.19-1.85Q174.74-2.4 174.39-2.55L174.39-2.55ZM166.49-3.15Q168.84-3.85 171.09-5.4L171.09-5.4Q171.59-5.75 171.99-6.3 172.39-6.85 172.49-7L172.49-7Q172.59-7.15 172.66-7.88 172.74-8.6 172.69-9.05L172.69-9.05Q172.64-9.2 172.51-9.85 172.39-10.5 172.14-11L172.14-11Q171.89-11.4 171.34-11.75 170.79-12.1 170.34-12.05L170.34-12.05Q169.39-12 168.29-11.35 167.19-10.7 166.24-9.6L166.24-9.6Q165.29-8.45 164.76-7.28 164.24-6.1 164.24-5.1L164.24-5.1Q164.34-3.75 164.99-3.3L164.99-3.3Q165.34-3.05 165.84-3.05L165.84-3.05Q166.24-3.05 166.49-3.15L166.49-3.15ZM187.63-21Q188.88-20.65 189.41-20.15 189.93-19.65 189.93-18.8L189.93-18.8Q189.93-18.4 189.78-17.75L189.78-17.75Q189.23-15.5 189.18-13.25L189.18-13.25Q189.13-10.7 189.98-8.55L189.98-8.55Q190.28-7.8 190.56-7.48 190.83-7.15 191.23-7.15L191.23-7.15Q191.73-7.15 192.53-8.05L192.53-8.05Q194.38-10.25 195.28-12.45 196.18-14.65 196.38-17L196.38-17Q196.53-18.55 196.88-18.95L196.88-18.95Q197.08-19.15 197.53-19.2 197.98-19.25 198.83-19.25L198.83-19.25Q200.18-19.15 200.71-19 201.23-18.85 201.43-18.5 201.63-18.15 201.63-17.35L201.63-17.35 201.58-15Q201.58-14.25 201.53-12.8L201.53-12.8Q201.38-8.3 201.28-6.1L201.28-6.1Q201.23-4.35 200.23-1.7L200.23-1.7Q200.13-1.55 199.68-1.28 199.23-1 198.88-0.95L198.88-0.95Q198.78-0.95 198.46-1.28 198.13-1.6 197.98-1.85L197.98-1.85Q197.63-2.65 197.18-4L197.18-4 196.78-4.95 196.68-5.25 196.53-5.1 195.73-4.6Q195.13-4.1 194.43-3.8L194.43-3.8Q193.28-3.1 191.68-3.1L191.68-3.1Q189.68-3.1 187.88-4.23 186.08-5.35 185.03-7.3L185.03-7.3Q183.33-10.3 183.33-14.25L183.33-14.25Q183.33-16.25 183.88-19.3L183.88-19.3Q183.98-20.05 184.83-20.6L184.83-20.6Q185.58-21.15 186.58-21.15L186.58-21.15Q187.08-21.15 187.63-21L187.63-21ZM224.93-18.25Q224.88-18.05 224.76-17.53 224.63-17 224.63-16.55L224.63-16.55Q225.33-16.65 225.88-16.9L225.88-16.9Q226.13-16.95 226.78-17.13 227.43-17.3 227.93-17.3L227.93-17.3Q229.58-17.3 230.43-15.4L230.43-15.4Q230.33-15.25 229.23-14.7L229.23-14.7Q227.68-13.85 227.03-13.7L227.03-13.7Q224.63-13.1 224.08-12.43 223.53-11.75 223.48-10.65 223.43-9.55 223.43-9.15L223.43-9.15 222.63 1.55Q222.48 3.8 221.88 5.1L221.88 5.1Q221.73 5.45 221.28 5.8 220.83 6.15 220.28 6.3L220.28 6.3Q218.83 6.65 218.78 4.8L218.78 4.8Q218.68 0.95 218.63-2.7L218.63-2.7Q218.78-5.3 218.83-6.6L218.83-6.6 218.93-8.4Q218.98-9 218.96-9.47 218.93-9.95 218.93-10.35L218.93-10.35 217.28-9.9Q215.48-9.55 212.88-8.7L212.88-8.7Q212.23-8.5 211.18-8.5L211.18-8.5Q209.43-8.5 208.03-9.28 206.63-10.05 206.38-11.3L206.38-11.3Q206.38-11.5 206.33-12L206.33-12Q206.18-13.35 207.13-15.3L207.13-15.3Q211.03-23.95 217.23-31.15L217.23-31.15Q217.58-31.6 218.41-31.83 219.23-32.05 219.58-32.2L219.58-32.2Q220.08-32.35 221.58-32.35L221.58-32.35Q223.28-32.35 224.68-31.98 226.08-31.6 226.23-30.65L226.23-30.65Q226.43-29.5 226.43-27.95L226.43-27.95Q226.43-26.6 226.28-25.2L226.28-25.2Q226.13-23.8 225.58-21.05L225.58-21.05Q225.33-20.1 224.93-18.25L224.93-18.25ZM221.08-27.3Q213.83-20.5 211.28-12.35L211.28-12.35Q211.48-12.3 211.81-12.25 212.13-12.2 212.28-12.25L212.28-12.25Q215.53-13.3 218.88-14.3L218.88-14.3Q219.18-14.35 219.41-14.8 219.63-15.25 219.68-15.6L219.68-15.6Q220.33-19.75 220.73-23.35L220.73-23.35Q220.78-24.3 220.98-26L220.98-26 221.08-27.3ZM238.18-21Q238.23-21.2 238.7-21.7 239.18-22.2 239.38-22.5L239.38-22.5Q237.98-22.95 237.1-23.53 236.23-24.1 235.73-25.1L235.73-25.1Q234.88-26.5 234.88-28L234.88-28Q234.88-29.15 235.33-30.18 235.78-31.2 236.68-32.85L236.68-32.85Q238.68-35.2 240.7-36.35 242.73-37.5 245.18-37.65L245.18-37.65Q246.68-37.75 248.73-37.1L248.73-37.1Q250.18-36.65 251.45-35.5 252.73-34.35 253.78-33.3L253.78-33.3Q253.98-33.1 253.98-32.45L253.98-32.45Q253.98-31.2 253.38-29.43 252.78-27.65 252.03-27L252.03-27Q251.33-26.4 250.73-25.95 250.13-25.5 250.13-25.3L250.13-25.3Q250.13-25.15 250.8-24.48 251.48-23.8 252.08-23.05L252.08-23.05Q253.08-22.05 253.75-19.83 254.43-17.6 254.43-15.85L254.43-15.85Q254.43-13.9 254.05-12.2 253.68-10.5 253.2-9 252.73-7.5 252.58-6.95L252.58-6.95Q251.53-3.85 249.28-1.98 247.03-0.1 244.08-0.1L244.08-0.1Q241.53-0.1 239.2-1.33 236.88-2.55 235.45-4.58 234.03-6.6 234.03-8.85L234.03-8.85Q234.03-9.2 234.13-9.9L234.13-9.9Q234.23-12.35 234.93-14.28 235.63-16.2 237.38-19.5L237.38-19.5 238.18-21ZM247.58-34.3Q245.63-34.3 244.03-33.35 242.43-32.4 241.5-30.78 240.58-29.15 240.58-27.2L240.58-27.2Q240.58-26.45 240.88-26.03 241.18-25.6 241.78-25.6L241.78-25.6Q242.23-25.6 242.68-25.8L242.68-25.8Q246.78-27.5 249.03-32L249.03-32Q249.23-32.4 249.23-32.9L249.23-32.9Q249.23-33.5 248.78-33.9 248.33-34.3 247.58-34.3L247.58-34.3ZM249.33-15.6Q249.43-16.9 249-18.8 248.58-20.7 248-22.25 247.43-23.8 247.28-23.85L247.28-23.85Q244.88-22.3 243.6-21.3 242.33-20.3 241.38-18.85L241.38-18.85Q239.58-16.1 239.58-11.55L239.58-11.55Q239.58-9.9 239.83-7.9L239.83-7.9Q239.98-6.7 240.58-5.55 241.18-4.4 241.98-3.9L241.98-3.9Q242.48-3.65 242.93-3.65L242.93-3.65Q243.83-3.65 244.55-4.4 245.28-5.15 245.78-6.2L245.78-6.2Q247.18-9.15 248.03-11.28 248.88-13.4 249.33-15.6L249.33-15.6Z" fill="#030303" data-fill-palette-color="primary"></path></g></svg></g></svg></g></svg></g></svg></g><g></g></svg></g></svg><rect width="395.52" height="89.13727517884035" fill="none" stroke="none" visibility="hidden"></rect></g></svg></g></svg>