<?xml version="1.0" encoding="UTF-8" standalone="no"?>
<!DOCTYPE svg PUBLIC "-//W3C//DTD SVG 20010904//EN" "http://www.w3.org/TR/2001/REC-SVG-20010904/DTD/svg10.dtd">

<svg xmlns="http://www.w3.org/2000/svg" width="1.6in" height="0.666667in" viewBox="0 0 480 140">
  <path id="Auswahl" fill="#e4f1fe" stroke="black" stroke-width="1" d="M 68.00,42.00
           C 68.00,42.00 79.00,42.00 79.00,42.00
             79.00,42.00 78.00,63.00 78.00,63.00
             80.35,60.92 81.99,59.32 85.00,58.15
             91.42,55.65 100.63,58.20 103.26,65.00
             104.13,67.25 104.00,70.57 104.00,73.00
             104.00,73.00 104.00,97.00 104.00,97.00
             104.00,97.00 93.83,97.00 93.83,97.00
             93.83,97.00 93.83,74.00 93.83,74.00
             92.98,70.70 90.75,66.80 87.00,66.54
             83.34,66.28 80.32,69.78 79.21,73.00
             79.21,73.00 79.21,97.00 79.21,97.00
             79.21,97.00 68.00,97.00 68.00,97.00
             68.00,97.00 68.00,42.00 68.00,42.00 Z
           M 120.04,42.68
           C 128.79,42.65 127.99,51.23 122.89,52.55
             116.68,54.16 111.29,46.09 120.04,42.68 Z
           M 57.00,86.00
           C 57.00,88.28 57.30,92.64 55.98,94.49
             54.42,96.67 50.48,97.02 48.00,97.41
             40.02,98.67 30.93,97.24 25.34,90.91
             15.78,80.08 17.07,56.34 30.00,47.98
             38.87,42.23 49.95,43.61 59.00,47.98
             59.00,47.98 55.00,57.00 55.00,57.00
             49.37,54.63 42.88,51.81 37.18,55.89
             28.00,62.45 27.79,86.87 42.58,88.13
             47.14,88.51 52.53,86.90 57.00,86.00 Z
           M 434.00,69.00
           C 431.30,67.48 429.93,66.71 428.23,63.96
             427.32,62.49 426.64,60.70 426.35,59.00
             422.81,37.73 467.47,40.11 458.30,62.00
             456.74,65.71 454.36,67.18 451.00,69.00
             453.61,71.27 457.38,74.12 459.15,77.01
             460.58,79.36 461.10,82.28 460.88,85.00
             459.53,101.80 425.06,102.99 425.03,84.00
             425.03,81.52 425.31,79.25 426.45,77.01
             428.14,73.72 431.27,71.40 434.00,69.00 Z
           M 381.00,86.00
           C 381.00,86.00 381.72,78.00 381.72,78.00
             381.72,78.00 396.28,56.00 396.28,56.00
             396.28,56.00 404.18,46.02 404.18,46.02
             404.18,46.02 414.00,45.00 414.00,45.00
             414.00,45.00 414.00,77.00 414.00,77.00
             421.50,77.26 420.97,79.09 421.00,86.00
             421.00,86.00 414.00,86.00 414.00,86.00
             414.00,86.00 414.00,97.00 414.00,97.00
             414.00,97.00 403.00,97.00 403.00,97.00
             403.00,97.00 403.00,86.00 403.00,86.00
             403.00,86.00 381.00,86.00 381.00,86.00 Z
           M 442.02,52.54
           C 432.86,56.01 438.71,65.18 443.96,63.92
             449.34,62.63 451.74,52.80 442.02,52.54 Z
           M 170.00,87.00
           C 169.99,89.08 170.25,92.63 169.01,94.35
             165.59,99.05 151.96,98.16 147.00,96.39
             138.65,93.41 134.54,84.49 135.18,76.00
             136.87,53.79 159.29,54.54 166.79,61.39
             172.24,66.38 172.00,73.28 172.00,80.00
             172.00,80.00 146.00,80.00 146.00,80.00
             151.67,94.00 158.92,88.70 170.00,87.00 Z
           M 190.00,63.00
           C 191.94,61.53 193.83,59.82 196.04,58.76
             202.18,55.81 210.59,56.61 214.00,63.00
             216.59,61.30 219.06,59.33 222.00,58.26
             228.76,55.81 237.56,57.57 240.15,65.02
             241.63,69.27 241.00,90.99 241.00,97.00
             241.00,97.00 230.00,97.00 230.00,97.00
             230.00,97.00 230.00,76.00 230.00,76.00
             229.93,72.44 229.61,68.83 225.94,67.07
             221.93,65.13 218.75,68.53 217.42,72.02
             215.36,77.43 216.00,90.68 216.00,97.00
             216.00,97.00 206.00,97.00 206.00,97.00
             206.00,91.18 206.38,79.11 205.38,74.00
             204.77,70.87 203.73,67.05 199.96,66.58
             196.22,66.10 193.32,69.77 192.21,73.00
             192.21,73.00 192.21,97.00 192.21,97.00
             192.21,97.00 181.00,97.00 181.00,97.00
             181.00,97.00 181.00,58.00 181.00,58.00
             186.41,58.02 188.65,57.12 190.00,63.00 Z
           M 257.00,82.00
           C 248.17,74.90 247.16,62.69 259.00,58.48
             265.98,56.00 268.43,57.68 275.00,57.98
             275.00,57.98 287.00,57.98 287.00,57.98
             287.00,57.98 287.00,64.00 287.00,64.00
             287.00,64.00 281.00,65.00 281.00,65.00
             282.01,67.18 282.75,68.49 282.80,71.00
             282.93,77.68 278.07,81.87 272.00,83.32
             266.61,84.60 264.03,82.63 261.00,88.00
             267.79,89.22 278.96,87.91 283.72,92.42
             289.35,97.74 286.83,106.27 280.98,110.30
             275.92,113.79 267.97,114.23 262.00,113.96
             257.75,113.77 253.34,112.91 250.23,109.78
             244.37,103.89 247.80,97.14 255.00,95.00
             251.73,89.09 250.46,85.97 257.00,82.00 Z
           M 295.00,61.00
           C 298.97,58.98 300.60,58.41 305.00,57.46
             307.90,57.09 310.05,56.88 313.00,57.46
             324.70,58.97 326.95,65.35 327.00,76.00
             327.00,76.00 327.00,97.00 327.00,97.00
             321.17,96.98 319.51,97.71 317.00,92.00
             311.27,97.07 304.48,99.98 297.04,96.23
             289.97,92.67 289.03,81.56 295.21,76.70
             300.04,72.91 310.07,73.00 316.00,73.00
             313.60,61.83 305.79,66.24 298.00,68.00
             298.00,68.00 295.00,61.00 295.00,61.00 Z
           M 404.00,58.00
           C 404.00,58.00 392.00,77.00 392.00,77.00
             392.00,77.00 403.00,77.00 403.00,77.00
             403.00,77.00 404.00,58.00 404.00,58.00 Z
           M 116.00,58.00
           C 116.00,58.00 127.00,58.00 127.00,58.00
             127.00,58.00 127.00,97.00 127.00,97.00
             127.00,97.00 116.00,97.00 116.00,97.00
             116.00,97.00 116.00,58.00 116.00,58.00 Z
           M 337.00,58.00
           C 337.00,58.00 348.16,58.00 348.16,58.00
             348.16,58.00 348.16,81.00 348.16,81.00
             348.85,83.89 350.10,87.14 353.11,88.22
             357.00,89.61 360.89,86.47 362.26,82.98
             363.53,79.76 363.00,62.63 363.00,58.00
             363.00,58.00 374.00,58.00 374.00,58.00
             374.00,58.00 374.00,97.00 374.00,97.00
             368.74,96.98 366.04,97.88 365.00,92.00
             361.01,94.96 358.23,97.29 353.00,97.80
             347.60,98.34 341.78,95.92 339.17,90.98
             336.10,85.17 337.00,65.39 337.00,58.00 Z
           M 265.06,64.45
           C 257.95,67.66 260.60,78.34 267.94,76.67
             273.07,75.50 274.95,63.67 265.06,64.45 Z
           M 162.00,73.00
           C 159.23,62.45 148.27,62.16 147.00,73.00
             147.00,73.00 162.00,73.00 162.00,73.00 Z
           M 443.00,75.26
           C 433.74,76.04 432.09,87.66 441.02,89.43
             445.98,90.42 452.21,86.79 450.22,81.09
             449.10,77.88 445.95,76.29 443.00,75.26 Z
           M 316.00,79.00
           C 316.00,79.00 310.00,79.62 310.00,79.62
             308.88,79.84 307.12,80.21 306.11,80.70
             295.33,85.86 310.69,95.69 315.26,84.90
             316.03,83.08 315.95,80.93 316.00,79.00 Z
           M 261.06,98.43
           C 253.53,101.90 258.00,107.46 267.00,106.91
             270.07,106.72 276.06,105.84 276.55,102.00
             276.70,100.86 276.32,99.89 275.42,99.17
             273.09,97.30 264.04,97.96 261.06,98.43 Z
           M 374.00,105.00
           C 374.00,105.00 376.00,105.00 376.00,105.00
             375.73,110.86 373.80,118.07 372.60,124.00
             371.78,128.04 372.08,130.41 368.00,132.00
             368.00,132.00 374.00,105.00 374.00,105.00 Z
           M 434.00,105.00
           C 434.00,105.00 437.00,105.00 437.00,105.00
             435.78,111.05 433.21,127.82 430.00,132.00
             430.00,132.00 429.00,129.00 429.00,129.00
             427.63,129.90 426.64,130.75 425.00,131.24
             414.02,134.53 416.60,111.01 427.91,113.46
             429.89,113.89 430.58,114.77 432.00,116.00
             432.00,116.00 434.00,105.00 434.00,105.00 Z
           M 471.00,105.00
           C 471.00,105.00 474.00,105.00 474.00,105.00
             472.78,111.05 470.21,127.82 467.00,132.00
             467.00,132.00 466.00,129.00 466.00,129.00
             464.63,129.90 463.64,130.75 462.00,131.24
             451.02,134.53 453.60,111.01 464.91,113.46
             466.89,113.89 467.58,114.77 469.00,116.00
             469.00,116.00 471.00,105.00 471.00,105.00 Z
           M 341.00,113.00
           C 341.00,113.00 343.00,116.00 343.00,116.00
             343.00,116.00 351.00,113.00 351.00,113.00
             348.67,116.66 346.12,116.69 343.70,120.06
             339.79,125.50 342.68,129.78 337.00,132.00
             337.00,132.00 341.00,113.00 341.00,113.00 Z
           M 364.00,127.95
           C 361.78,134.14 354.37,132.18 352.60,127.95
             349.88,121.29 356.08,110.96 362.85,113.62
             366.43,115.02 366.20,119.12 363.69,121.49
             361.31,123.72 358.05,123.85 355.00,124.00
             356.75,129.56 358.85,129.37 364.00,127.95 Z
           M 384.04,113.74
           C 397.59,110.76 395.60,127.70 387.91,130.99
             377.39,135.49 373.78,119.65 384.04,113.74 Z
           M 409.00,129.00
           C 407.63,129.90 406.64,130.75 405.00,131.24
             394.02,134.53 397.07,112.29 407.00,113.44
             409.15,113.69 410.35,114.84 412.00,116.00
             412.00,116.00 415.00,113.00 415.00,113.00
             414.28,118.30 412.87,127.65 410.00,132.00
             410.00,132.00 409.00,129.00 409.00,129.00 Z
           M 450.00,127.95
           C 447.78,134.14 440.37,132.18 438.60,127.95
             435.88,121.29 442.08,110.96 448.85,113.62
             452.43,115.02 452.20,119.12 449.69,121.49
             447.31,123.72 444.05,123.85 441.00,124.00
             442.75,129.56 444.85,129.37 450.00,127.95 Z
           M 355.00,122.00
           C 355.00,122.00 358.96,121.28 358.96,121.28
             365.98,119.07 361.69,113.38 357.51,117.45
             356.21,118.70 355.67,120.39 355.00,122.00 Z
           M 386.96,115.86
           C 378.67,118.03 379.96,129.14 385.04,129.14
             390.15,129.14 394.40,117.98 386.96,115.86 Z
           M 406.94,115.86
           C 402.82,117.01 401.38,119.76 401.12,123.98
             400.99,126.15 401.24,129.05 404.09,129.00
             408.42,128.93 414.41,118.11 406.94,115.86 Z
           M 426.91,115.86
           C 422.62,117.02 421.32,119.59 421.11,123.98
             421.00,126.12 421.26,129.14 424.09,129.14
             428.59,129.14 434.68,118.16 426.91,115.86 Z
           M 441.00,122.00
           C 441.00,122.00 444.96,121.28 444.96,121.28
             451.98,119.07 447.69,113.38 443.51,117.45
             442.21,118.70 441.67,120.39 441.00,122.00 Z
           M 463.91,115.86
           C 459.62,117.02 458.32,119.59 458.11,123.98
             458.00,126.12 458.26,129.14 461.09,129.14
             465.59,129.14 471.68,118.16 463.91,115.86 Z" />
</svg>